<svg xmlns="http://www.w3.org/2000/svg" viewBox="0 0 512 512">
  <rect width="512" height="512" rx="96" ry="96" fill="#FFFF00"/>
  <path d="M256 100c-8 0-15.5 3-21.2 8.5L134 200c-12 11-18.5 26.5-18.5 42.5 0 0 0 95 0 95 0 30 15 57.5 40 74l88 56c7.5 5 16 7.5 24.5 7.5s17-2.5 24.5-7.5l88-56c25-16.5 40-44 40-74v-95c0-16-6.5-31.5-18.5-42.5L302 108.5C296.5 103 289 100 256 100z" fill="#0A0A0A"/>
  <polyline points="200,270 245,315 320,220" fill="none" stroke="#FFFF00" stroke-width="28" stroke-linecap="round" stroke-linejoin="round"/>
</svg>