<?xml version="1.0" encoding="UTF-8"?>
<!DOCTYPE svg PUBLIC "-//W3C//DTD SVG 1.1//EN" "http://www.w3.org/Graphics/SVG/1.1/DTD/svg11.dtd">
<!-- Creator: CorelDRAW -->
<svg xmlns="http://www.w3.org/2000/svg" xml:space="preserve" width="152.248mm" height="46.1431mm" version="1.1" style="shape-rendering:geometricPrecision; text-rendering:geometricPrecision; image-rendering:optimizeQuality; fill-rule:evenodd; clip-rule:evenodd"
viewBox="0 0 1196.44 362.62"
 xmlns:xlink="http://www.w3.org/1999/xlink"
 xmlns:xodm="http://www.corel.com/coreldraw/odm/2003">
 <defs>
  <style type="text/css">
   <![CDATA[
    .fil1 {fill:#373435}
    .fil0 {fill:#2D68F0}
   ]]>
  </style>
 </defs>
 <g id="Camada_x0020_1">
  <metadata id="CorelCorpID_0Corel-Layer"/>
  <path class="fil0" d="M276.83 80.38c28.04,-7.56 41.81,46.63 19.43,70.38 -6.2,6.58 -15.78,9.24 -24.14,4.14 -5.82,-3.55 -4.75,-2.71 -8.29,-7.8 -15.14,-21.79 -9.15,-60.75 13,-66.72zm-95.86 -0.08c18.11,-4.58 28.78,16.39 30.3,32.83 1.79,19.42 -6.28,39.46 -20.79,43.76 -18.19,5.38 -29.62,-17.65 -30.85,-33.53 -1.5,-19.31 6.55,-39.31 21.35,-43.06zm-180.93 69.69l-0.05 59.42c19,4.24 45.8,-0.19 64.18,-7.31 5.59,-2.16 13.05,-7.74 18.65,-3.71 5.95,4.28 5.24,12.55 -0.83,15.57 -18.38,9.16 -39.01,14.36 -60.47,15.01l13.02 49.3c32.85,-1.38 75.55,-18.76 100.34,-38.07 13.41,-10.45 15.45,-13.63 26.47,-24.07 2.67,-2.53 4.05,-5.1 5.95,-6.69 5.31,-4.43 13.41,-1.96 14.95,4.62 1.48,6.32 -4.44,11 -8.66,15.64 -10.33,11.37 -15.29,14.88 -26.54,24.02 -17.09,13.9 -44.75,27.48 -66.78,34.12 1.53,4.54 21.74,36.7 25.06,44.27 16.98,-3.66 47.1,-21.7 62,-31.48 12.87,-8.44 23.23,-17.7 34.42,-28.13 18.65,-17.36 34.3,-39.85 47.25,-61.89 6.22,-10.58 16.49,-4.84 17.46,1.75 1.35,9.22 -25.15,42.78 -32.86,52.73 -1.23,1.59 -2.48,2.68 -3.83,4.14 -11.76,12.66 -9.55,10.82 -23.56,23.7 -15.28,14.05 -19.23,15.36 -35.15,27.29 3.42,2.93 7.01,6.96 10.41,10.37 4.18,4.2 30.19,30.97 32.68,32 2.59,-2.56 4.34,-3.26 7.08,-5.46 6.36,-5.1 16.56,-12.49 21.3,-17.28 2.45,-2.47 3,-2.19 5.21,-4.15l6.79 -6.45c4.82,-4.89 14.2,-13.75 17.02,-17.59 3.57,-4.88 5.81,-6.39 8.87,-10.42 13.18,-17.35 19.61,-24.39 31.84,-45.33 17.32,-29.65 38.62,-77.6 38.93,-114.88 0.07,-8.19 -0.38,-16.05 -1.56,-23.82 -0.63,-4.14 -4.46,-19.25 -4.33,-21.17 -1.41,0 -0.85,0.26 -0.86,-1.57l0.32 -0.24c-1.79,-1.51 -1.79,-3.15 -2.33,-5.76 -0.81,-1 -2.98,-7.02 -3.83,-8.82l-9.83 -18.12c-1.74,-2.77 -4.43,-5.63 -5.3,-8.31 -1.26,-0.97 -0.75,0.13 -1.24,-1.86 -1.12,0.23 -0.74,0.41 -0.94,-0.83 -1.4,-0.1 -0.37,0.19 -0.45,-0.77 -1.35,0 -0.88,0.3 -1.11,-1.23 -1.59,-0.42 -1.17,-0.7 -1.64,-1.96 -0.94,-0.77 -0.48,-0.19 -1.19,-1.08 -0.91,-1.13 -0.08,0.04 -0.68,-1.41 -1.15,0.28 -0.9,0.47 -0.62,-0.7 -1.08,0.24 -0.82,0.42 -0.61,-0.7 -1.05,0.19 -0.82,0.4 -0.64,-0.66 -1.15,0.2 -0.77,0.41 -1.03,-0.81l-6.15 -6.08c-1.28,-0.25 -1.09,0.15 -0.84,-1.04 -1.4,-0.61 -0.13,0.03 -1.3,-0.7l-3.06 -2.58c-0.06,-0.24 -0.26,-0.26 -0.38,-0.39 -0.69,-0.05 -0.73,0.59 -0.42,-0.53l-1.96 -1.7c-1.33,-0.17 -0.91,1.08 -1.37,-0.94 -1.49,-0.18 -1.19,0.27 -1.19,-1.08 -1,-0.03 -0.79,0.83 -0.8,-0.37 -2.09,-1.09 -1.16,-0.58 -1.9,-1.6 -1.62,-0.22 -0.65,1.43 -1.56,-0.84 -1.6,-0.18 -1.32,0.32 -1.32,-1.04l0.12 0.19c-5.42,-2.52 -12.53,-7.1 -19.43,-10.41 -21.98,-10.52 -50.05,-14.34 -74.69,-10.93 -25.21,3.49 -43.08,11.87 -62.23,25.41 -1.66,1.17 -3.04,1.65 -4.44,2.94 -2.05,1.88 -1.44,1.96 -3.71,3.52 -2.94,2.02 -4.79,4.26 -7.58,7.08 -3.94,3.98 -10.63,10.88 -13.73,15.51 -3.92,5.87 -7.59,10.93 -11.09,18.19 -3.4,7.06 -6.08,12.49 -8.63,20.57 -2.52,7.96 -4.02,14.51 -7.97,21.34 -27.61,47.76 -74.95,33.47 -77.66,34.21z"/>
  <path class="fil1" d="M804.65 162.56c59.42,-7.66 56.89,66.83 7.88,72.95 -59.58,7.44 -57.51,-66.55 -7.88,-72.95zm99.86 36.66c5.33,-53.17 -44.73,-75.34 -95.6,-74.18 -28.8,0.66 -59.86,10.54 -76.7,29.62 -10.73,12.16 -18.2,26.16 -19.75,43.95 -2.24,25.62 6.98,44.52 27.34,58.19 44.36,29.78 156.6,23.43 164.72,-57.58z"/>
  <path class="fil1" d="M582.04 139.44c1.64,-1.14 0.59,0.63 1.45,-2.43l1.68 -8.67c1.37,-7.25 6.23,-28.9 6.34,-33.28l-153.37 -0.04 -33.87 174.56 53.56 -0.01 12.83 -65.31 87.72 -0c1.68,-1.13 0.93,-0.24 1.51,-2.91l5.74 -32.43 -88.04 -0.04 5.89 -29.44 98.57 -0z"/>
  <path class="fil1" d="M1009.65 128.54l32.08 141.05 67.33 -0.13c3.39,-6.11 7.39,-12.06 11.09,-18.04l65.74 -105.31c1.7,-2.69 10.11,-15.54 10.56,-17.64l-57.3 0.03c-9.55,15.81 -18.91,31.35 -28.53,47.29l-25.07 41.65c-1.3,2.17 -1.68,4.3 -4.35,4.77l-20.15 -93.74 -51.39 0.06z"/>
  <path class="fil1" d="M710.03 176.84c1.71,-0.96 0.91,0.01 1.55,-2.75l9.1 -48.6c-15.61,-0.11 -27.58,-0.93 -40.63,5.51 -8.02,3.96 -17.71,10.96 -22.76,18.52 -1.74,2.6 -0.54,2.1 -3.06,2.64 -1.4,-0.78 -1.39,1.22 -0.83,-2.79l1.88 -9.12c0.73,-3.64 1.86,-8.1 2.2,-11.77l-53.44 0.04 -27.36 141.06 52.68 0.01c2.04,-1.26 2.02,-6.02 2.5,-8.44 2.31,-11.59 10.84,-59.61 12.6,-63.18 1.76,-3.56 7.52,-8.94 10.82,-11.03 18.62,-11.86 32.25,-10.09 54.76,-10.09z"/>
  <path class="fil1" d="M968.45 269.59c2.04,-1.26 2.02,-6.02 2.51,-8.44l11.95 -61.47c3.17,-16.62 12.01,-57.77 13.69,-71.21 -2.91,0.25 -8.01,3.55 -12.38,4.62 -21.19,5.16 -38.08,-4.65 -41.09,-4.57l-27.36 141.06 52.68 0.01z"/>
  <path class="fil1" d="M971.55 67.35c-41.31,3.9 -41.25,58.38 6.03,54.19 39.43,-3.5 41.01,-58.63 -6.03,-54.19z"/>
 </g>
</svg>
